<svg width="707" height="124" viewBox="0 0 707 124" fill="none" xmlns="http://www.w3.org/2000/svg">
<path d="M172.879 47H161.374L158.384 37.315H143.694L140.639 47H129.394L144.474 4.1H157.864L172.879 47ZM145.774 29.71H156.304L151.039 12.355L145.774 29.71ZM188.008 0.719999V35.95C188.008 37.38 188.246 38.3983 188.723 39.005C189.2 39.6117 190.001 39.915 191.128 39.915C191.778 39.915 192.32 39.8717 192.753 39.785C193.186 39.6983 193.706 39.5683 194.313 39.395L193.598 46.025C192.818 46.5017 191.8 46.8917 190.543 47.195C189.286 47.4983 188.051 47.65 186.838 47.65C183.371 47.65 180.858 46.8483 179.298 45.245C177.738 43.6417 176.958 41.02 176.958 37.38V0.719999H188.008ZM209.273 0.719999V35.95C209.273 37.38 209.511 38.3983 209.988 39.005C210.464 39.6117 211.266 39.915 212.393 39.915C213.043 39.915 213.584 39.8717 214.018 39.785C214.451 39.6983 214.971 39.5683 215.578 39.395L214.863 46.025C214.083 46.5017 213.064 46.8917 211.808 47.195C210.551 47.4983 209.316 47.65 208.103 47.65C204.636 47.65 202.123 46.8483 200.563 45.245C199.003 43.6417 198.223 41.02 198.223 37.38V0.719999H209.273ZM273.04 4.1V12.745H259.065V47H247.885V12.745H233.845V4.1H273.04ZM278.143 47V0.719999H289.193V20.415C290.146 18.2483 291.511 16.6233 293.288 15.54C295.064 14.4133 297.123 13.85 299.463 13.85C301.716 13.85 303.666 14.2833 305.313 15.15C307.003 16.0167 308.324 17.295 309.278 18.985C310.231 20.675 310.708 22.7983 310.708 25.355V47H299.658V28.41C299.658 26.07 299.224 24.4667 298.358 23.6C297.534 22.69 296.429 22.235 295.043 22.235C294.003 22.235 293.028 22.495 292.118 23.015C291.208 23.535 290.493 24.3583 289.973 25.485C289.453 26.6117 289.193 28.085 289.193 29.905V47H278.143ZM323.975 10.73C321.722 10.73 320.075 10.3183 319.035 9.495C318.039 8.62833 317.54 7.285 317.54 5.465C317.54 3.60166 318.039 2.25833 319.035 1.435C320.075 0.568332 321.722 0.134999 323.975 0.134999C326.185 0.134999 327.81 0.568332 328.85 1.435C329.89 2.25833 330.41 3.60166 330.41 5.465C330.41 7.285 329.89 8.62833 328.85 9.495C327.81 10.3183 326.185 10.73 323.975 10.73ZM329.5 14.5V47H318.45V14.5H329.5ZM337.366 47V14.5H347.246L347.831 25.68L346.596 24.445C347.03 22.105 347.788 20.155 348.871 18.595C349.998 17.035 351.385 15.865 353.031 15.085C354.721 14.2617 356.606 13.85 358.686 13.85C360.94 13.85 362.89 14.2833 364.536 15.15C366.226 16.0167 367.548 17.295 368.501 18.985C369.455 20.675 369.931 22.7983 369.931 25.355V47H358.881V28.28C358.881 26.0267 358.448 24.4667 357.581 23.6C356.715 22.7333 355.61 22.3 354.266 22.3C353.226 22.3 352.251 22.56 351.341 23.08C350.431 23.5567 349.716 24.3367 349.196 25.42C348.676 26.5033 348.416 27.955 348.416 29.775V47H337.366ZM413.359 14.5L397.759 31.14L395.679 31.725L386.384 42.125L386.319 30.815L401.074 14.5H413.359ZM388.724 0.719999V47H377.674V0.719999H388.724ZM399.449 24.25L414.074 47H401.854L392.234 30.75L399.449 24.25ZM431.505 47.65C428.255 47.65 425.221 47.13 422.405 46.09C419.631 45.0067 417.335 43.4683 415.515 41.475L420.715 35.365C421.798 36.7517 423.228 37.9217 425.005 38.875C426.825 39.785 428.84 40.24 431.05 40.24C432.393 40.24 433.498 40.045 434.365 39.655C435.231 39.265 435.665 38.6583 435.665 37.835C435.665 37.2283 435.448 36.7517 435.015 36.405C434.581 36.015 433.715 35.69 432.415 35.43L427.865 34.52C423.791 33.6967 420.888 32.4833 419.155 30.88C417.465 29.2333 416.62 27.0883 416.62 24.445C416.62 22.6683 417.161 20.9783 418.245 19.375C419.328 17.7283 420.996 16.4067 423.25 15.41C425.503 14.37 428.385 13.85 431.895 13.85C435.188 13.85 438.091 14.3267 440.605 15.28C443.118 16.2333 445.111 17.62 446.585 19.44L441.32 25.42C440.28 24.12 438.936 23.1017 437.29 22.365C435.643 21.6283 433.996 21.26 432.35 21.26C431.31 21.26 430.421 21.3683 429.685 21.585C428.991 21.7583 428.471 22.0183 428.125 22.365C427.778 22.7117 427.605 23.145 427.605 23.665C427.605 24.2283 427.865 24.7267 428.385 25.16C428.948 25.55 429.966 25.8967 431.44 26.2L437.355 27.37C440.691 27.9767 443.096 29.0817 444.57 30.685C446.043 32.2883 446.78 34.2167 446.78 36.47C446.78 38.5933 446.216 40.5 445.09 42.19C443.963 43.88 442.273 45.2233 440.02 46.22C437.766 47.1733 434.928 47.65 431.505 47.65ZM509.432 47H497.927L494.937 37.315H480.247L477.192 47H465.947L481.027 4.1H494.417L509.432 47ZM482.327 29.71H492.857L487.592 12.355L482.327 29.71ZM513.641 47V14.5H523.391L523.846 21.52C524.669 19.0933 525.882 17.2083 527.486 15.865C529.132 14.5217 531.212 13.85 533.726 13.85C534.549 13.85 535.242 13.915 535.806 14.045C536.412 14.175 536.889 14.3483 537.236 14.565L536.131 23.665C535.697 23.4917 535.134 23.3617 534.441 23.275C533.791 23.145 532.989 23.08 532.036 23.08C530.736 23.08 529.522 23.3617 528.396 23.925C527.269 24.4883 526.359 25.3333 525.666 26.46C525.016 27.5433 524.691 28.93 524.691 30.62V47H513.641ZM557.05 47.65C553.453 47.65 550.333 46.9783 547.69 45.635C545.09 44.2917 543.075 42.3633 541.645 39.85C540.215 37.3367 539.5 34.3033 539.5 30.75C539.5 27.1967 540.215 24.1633 541.645 21.65C543.075 19.1367 545.068 17.2083 547.625 15.865C550.225 14.5217 553.193 13.85 556.53 13.85C559.953 13.85 562.856 14.5217 565.24 15.865C567.666 17.165 569.508 18.985 570.765 21.325C572.021 23.6217 572.65 26.265 572.65 29.255C572.65 30.035 572.628 30.815 572.585 31.595C572.541 32.375 572.476 33.025 572.39 33.545H546.65V27.63H567.515L562.25 29.645C562.25 27.045 561.773 25.0517 560.82 23.665C559.91 22.2783 558.48 21.585 556.53 21.585C555.143 21.585 553.951 21.91 552.955 22.56C552.001 23.21 551.265 24.2283 550.745 25.615C550.268 27.0017 550.03 28.7783 550.03 30.945C550.03 33.0683 550.311 34.8017 550.875 36.145C551.438 37.445 552.24 38.3983 553.28 39.005C554.32 39.5683 555.576 39.85 557.05 39.85C558.696 39.85 559.996 39.525 560.95 38.875C561.946 38.225 562.683 37.315 563.16 36.145L572 39.07C571.393 40.9333 570.331 42.515 568.815 43.815C567.341 45.0717 565.565 46.025 563.485 46.675C561.448 47.325 559.303 47.65 557.05 47.65ZM19.7652 80.1C23.2752 80.1 26.2652 80.6633 28.7352 81.79C31.2052 82.9167 33.0902 84.5417 34.3902 86.665C35.6902 88.7883 36.3402 91.3667 36.3402 94.4C36.3402 97.4333 35.6902 100.012 34.3902 102.135C33.0902 104.258 31.2052 105.883 28.7352 107.01C26.2652 108.137 23.2752 108.7 19.7652 108.7H11.2502V123H0.0701957V80.1H19.7652ZM18.0102 100.315C20.3502 100.315 22.1052 99.8383 23.2752 98.885C24.4885 97.8883 25.0952 96.3933 25.0952 94.4C25.0952 92.4067 24.4885 90.9333 23.2752 89.98C22.1052 88.9833 20.3502 88.485 18.0102 88.485H11.2502V100.315H18.0102ZM57.1625 89.85C60.5859 89.85 63.5759 90.5217 66.1325 91.865C68.7325 93.165 70.7475 95.0933 72.1775 97.65C73.6509 100.163 74.3875 103.197 74.3875 106.75C74.3875 110.303 73.6509 113.358 72.1775 115.915C70.7475 118.428 68.7325 120.357 66.1325 121.7C63.5759 123 60.5859 123.65 57.1625 123.65C53.8259 123.65 50.8575 123 48.2575 121.7C45.6575 120.357 43.6209 118.428 42.1475 115.915C40.7175 113.358 40.0025 110.303 40.0025 106.75C40.0025 103.197 40.7175 100.163 42.1475 97.65C43.6209 95.0933 45.6575 93.165 48.2575 91.865C50.8575 90.5217 53.8259 89.85 57.1625 89.85ZM57.1625 97.715C55.9059 97.715 54.8225 98.0183 53.9125 98.625C53.0025 99.2317 52.3092 100.207 51.8325 101.55C51.3559 102.893 51.1175 104.627 51.1175 106.75C51.1175 108.873 51.3559 110.607 51.8325 111.95C52.3092 113.25 53.0025 114.225 53.9125 114.875C54.8225 115.482 55.9059 115.785 57.1625 115.785C58.4625 115.785 59.5675 115.482 60.4775 114.875C61.3875 114.225 62.0809 113.25 62.5575 111.95C63.0342 110.607 63.2725 108.873 63.2725 106.75C63.2725 104.627 63.0342 102.893 62.5575 101.55C62.0809 100.207 61.3875 99.2317 60.4775 98.625C59.5675 98.0183 58.4625 97.715 57.1625 97.715ZM94.2537 123.65C91.0037 123.65 87.9703 123.13 85.1537 122.09C82.3803 121.007 80.0837 119.468 78.2637 117.475L83.4637 111.365C84.547 112.752 85.977 113.922 87.7537 114.875C89.5737 115.785 91.5887 116.24 93.7987 116.24C95.142 116.24 96.247 116.045 97.1137 115.655C97.9803 115.265 98.4137 114.658 98.4137 113.835C98.4137 113.228 98.197 112.752 97.7637 112.405C97.3303 112.015 96.4637 111.69 95.1637 111.43L90.6137 110.52C86.5403 109.697 83.637 108.483 81.9037 106.88C80.2137 105.233 79.3687 103.088 79.3687 100.445C79.3687 98.6683 79.9103 96.9783 80.9937 95.375C82.077 93.7283 83.7453 92.4067 85.9987 91.41C88.252 90.37 91.1337 89.85 94.6437 89.85C97.937 89.85 100.84 90.3267 103.354 91.28C105.867 92.2333 107.86 93.62 109.334 95.44L104.069 101.42C103.029 100.12 101.685 99.1017 100.039 98.365C98.392 97.6283 96.7453 97.26 95.0987 97.26C94.0587 97.26 93.1703 97.3683 92.4337 97.585C91.7403 97.7583 91.2203 98.0183 90.8737 98.365C90.527 98.7117 90.3537 99.145 90.3537 99.665C90.3537 100.228 90.6137 100.727 91.1337 101.16C91.697 101.55 92.7153 101.897 94.1887 102.2L100.104 103.37C103.44 103.977 105.845 105.082 107.319 106.685C108.792 108.288 109.529 110.217 109.529 112.47C109.529 114.593 108.965 116.5 107.839 118.19C106.712 119.88 105.022 121.223 102.769 122.22C100.515 123.173 97.677 123.65 94.2537 123.65ZM128.912 123.65C125.662 123.65 122.629 123.13 119.812 122.09C117.039 121.007 114.742 119.468 112.922 117.475L118.122 111.365C119.205 112.752 120.635 113.922 122.412 114.875C124.232 115.785 126.247 116.24 128.457 116.24C129.8 116.24 130.905 116.045 131.772 115.655C132.639 115.265 133.072 114.658 133.072 113.835C133.072 113.228 132.855 112.752 132.422 112.405C131.989 112.015 131.122 111.69 129.822 111.43L125.272 110.52C121.199 109.697 118.295 108.483 116.562 106.88C114.872 105.233 114.027 103.088 114.027 100.445C114.027 98.6683 114.569 96.9783 115.652 95.375C116.735 93.7283 118.404 92.4067 120.657 91.41C122.91 90.37 125.792 89.85 129.302 89.85C132.595 89.85 135.499 90.3267 138.012 91.28C140.525 92.2333 142.519 93.62 143.992 95.44L138.727 101.42C137.687 100.12 136.344 99.1017 134.697 98.365C133.05 97.6283 131.404 97.26 129.757 97.26C128.717 97.26 127.829 97.3683 127.092 97.585C126.399 97.7583 125.879 98.0183 125.532 98.365C125.185 98.7117 125.012 99.145 125.012 99.665C125.012 100.228 125.272 100.727 125.792 101.16C126.355 101.55 127.374 101.897 128.847 102.2L134.762 103.37C138.099 103.977 140.504 105.082 141.977 106.685C143.45 108.288 144.187 110.217 144.187 112.47C144.187 114.593 143.624 116.5 142.497 118.19C141.37 119.88 139.68 121.223 137.427 122.22C135.174 123.173 132.335 123.65 128.912 123.65ZM155.445 86.73C153.192 86.73 151.545 86.3183 150.505 85.495C149.508 84.6283 149.01 83.285 149.01 81.465C149.01 79.6017 149.508 78.2583 150.505 77.435C151.545 76.5683 153.192 76.135 155.445 76.135C157.655 76.135 159.28 76.5683 160.32 77.435C161.36 78.2583 161.88 79.6017 161.88 81.465C161.88 83.285 161.36 84.6283 160.32 85.495C159.28 86.3183 157.655 86.73 155.445 86.73ZM160.97 90.5V123H149.92V90.5H160.97ZM189.701 123.65C187.578 123.65 185.693 123.173 184.046 122.22C182.443 121.267 181.121 119.967 180.081 118.32C179.041 116.63 178.369 114.723 178.066 112.6L179.106 111.235L178.521 123H168.836V76.72H179.886V100.705L178.846 99.145C179.453 96.4583 180.688 94.2483 182.551 92.515C184.414 90.7383 186.928 89.85 190.091 89.85C192.604 89.85 194.836 90.5217 196.786 91.865C198.779 93.2083 200.318 95.1583 201.401 97.715C202.528 100.228 203.091 103.283 203.091 106.88C203.091 110.39 202.528 113.402 201.401 115.915C200.274 118.428 198.714 120.357 196.721 121.7C194.728 123 192.388 123.65 189.701 123.65ZM185.866 115.525C187.773 115.525 189.268 114.832 190.351 113.445C191.434 112.015 191.976 109.783 191.976 106.75C191.976 103.717 191.434 101.507 190.351 100.12C189.268 98.69 187.773 97.975 185.866 97.975C184.609 97.975 183.526 98.3433 182.616 99.08C181.749 99.7733 181.078 100.77 180.601 102.07C180.124 103.37 179.886 104.952 179.886 106.815C179.886 108.678 180.124 110.26 180.601 111.56C181.078 112.86 181.771 113.857 182.681 114.55C183.591 115.2 184.653 115.525 185.866 115.525ZM220.508 76.72V111.95C220.508 113.38 220.746 114.398 221.223 115.005C221.7 115.612 222.501 115.915 223.628 115.915C224.278 115.915 224.82 115.872 225.253 115.785C225.686 115.698 226.206 115.568 226.813 115.395L226.098 122.025C225.318 122.502 224.3 122.892 223.043 123.195C221.786 123.498 220.551 123.65 219.338 123.65C215.871 123.65 213.358 122.848 211.798 121.245C210.238 119.642 209.458 117.02 209.458 113.38V76.72H220.508ZM246.713 123.65C243.116 123.65 239.996 122.978 237.353 121.635C234.753 120.292 232.738 118.363 231.308 115.85C229.878 113.337 229.163 110.303 229.163 106.75C229.163 103.197 229.878 100.163 231.308 97.65C232.738 95.1367 234.731 93.2083 237.288 91.865C239.888 90.5217 242.856 89.85 246.193 89.85C249.616 89.85 252.519 90.5217 254.903 91.865C257.329 93.165 259.171 94.985 260.428 97.325C261.684 99.6217 262.313 102.265 262.313 105.255C262.313 106.035 262.291 106.815 262.248 107.595C262.204 108.375 262.139 109.025 262.053 109.545H236.313V103.63H257.178L251.913 105.645C251.913 103.045 251.436 101.052 250.483 99.665C249.573 98.2783 248.143 97.585 246.193 97.585C244.806 97.585 243.614 97.91 242.618 98.56C241.664 99.21 240.928 100.228 240.408 101.615C239.931 103.002 239.693 104.778 239.693 106.945C239.693 109.068 239.974 110.802 240.538 112.145C241.101 113.445 241.903 114.398 242.943 115.005C243.983 115.568 245.239 115.85 246.713 115.85C248.359 115.85 249.659 115.525 250.613 114.875C251.609 114.225 252.346 113.315 252.823 112.145L261.663 115.07C261.056 116.933 259.994 118.515 258.478 119.815C257.004 121.072 255.228 122.025 253.148 122.675C251.111 123.325 248.966 123.65 246.713 123.65ZM299.053 80.1V123H287.873V80.1H299.053ZM322.931 75.81C324.708 75.81 326.268 76.005 327.611 76.395C328.955 76.7417 329.951 77.1533 330.601 77.63L329.496 84.52C329.02 84.2167 328.478 83.9783 327.871 83.805C327.265 83.6317 326.506 83.545 325.596 83.545C324.08 83.545 322.823 83.8917 321.826 84.585C320.873 85.2783 320.396 86.4917 320.396 88.225V92.45L321.046 94.27V123H309.996V87.51C309.996 85.43 310.321 83.6533 310.971 82.18C311.665 80.7067 312.618 79.4933 313.831 78.54C315.045 77.5867 316.431 76.8933 317.991 76.46C319.551 76.0267 321.198 75.81 322.931 75.81ZM330.276 90.5V98.365H304.796V90.5H330.276ZM388.596 80.1L373.451 107.335V123H362.271V107.335L347.126 80.1H358.696L364.741 91.865L367.926 99.015L371.176 91.865L377.221 80.1H388.596ZM401.65 89.85C405.073 89.85 408.063 90.5217 410.62 91.865C413.22 93.165 415.235 95.0933 416.665 97.65C418.138 100.163 418.875 103.197 418.875 106.75C418.875 110.303 418.138 113.358 416.665 115.915C415.235 118.428 413.22 120.357 410.62 121.7C408.063 123 405.073 123.65 401.65 123.65C398.313 123.65 395.345 123 392.745 121.7C390.145 120.357 388.108 118.428 386.635 115.915C385.205 113.358 384.49 110.303 384.49 106.75C384.49 103.197 385.205 100.163 386.635 97.65C388.108 95.0933 390.145 93.165 392.745 91.865C395.345 90.5217 398.313 89.85 401.65 89.85ZM401.65 97.715C400.393 97.715 399.31 98.0183 398.4 98.625C397.49 99.2317 396.797 100.207 396.32 101.55C395.843 102.893 395.605 104.627 395.605 106.75C395.605 108.873 395.843 110.607 396.32 111.95C396.797 113.25 397.49 114.225 398.4 114.875C399.31 115.482 400.393 115.785 401.65 115.785C402.95 115.785 404.055 115.482 404.965 114.875C405.875 114.225 406.568 113.25 407.045 111.95C407.522 110.607 407.76 108.873 407.76 106.75C407.76 104.627 407.522 102.893 407.045 101.55C406.568 100.207 405.875 99.2317 404.965 98.625C404.055 98.0183 402.95 97.715 401.65 97.715ZM436.076 123.65C433.866 123.65 431.916 123.282 430.226 122.545C428.579 121.765 427.279 120.53 426.326 118.84C425.373 117.15 424.896 114.94 424.896 112.21V90.5H435.946V109.61C435.946 111.69 436.358 113.142 437.181 113.965C438.004 114.788 439.174 115.2 440.691 115.2C441.471 115.2 442.208 115.07 442.901 114.81C443.594 114.507 444.201 114.073 444.721 113.51C445.241 112.903 445.631 112.145 445.891 111.235C446.194 110.282 446.346 109.177 446.346 107.92V90.5H457.396V123H447.516L447.191 116.89C446.151 119.187 444.699 120.898 442.836 122.025C440.973 123.108 438.719 123.65 436.076 123.65ZM504.799 123.65C502.675 123.65 500.79 123.173 499.144 122.22C497.54 121.267 496.219 119.967 495.179 118.32C494.139 116.63 493.467 114.723 493.164 112.6L494.204 111.235L493.619 123H483.934V76.72H494.984V100.705L493.944 99.145C494.55 96.4583 495.785 94.2483 497.649 92.515C499.512 90.7383 502.025 89.85 505.189 89.85C507.702 89.85 509.934 90.5217 511.884 91.865C513.877 93.2083 515.415 95.1583 516.499 97.715C517.625 100.228 518.189 103.283 518.189 106.88C518.189 110.39 517.625 113.402 516.499 115.915C515.372 118.428 513.812 120.357 511.819 121.7C509.825 123 507.485 123.65 504.799 123.65ZM500.964 115.525C502.87 115.525 504.365 114.832 505.449 113.445C506.532 112.015 507.074 109.783 507.074 106.75C507.074 103.717 506.532 101.507 505.449 100.12C504.365 98.69 502.87 97.975 500.964 97.975C499.707 97.975 498.624 98.3433 497.714 99.08C496.847 99.7733 496.175 100.77 495.699 102.07C495.222 103.37 494.984 104.952 494.984 106.815C494.984 108.678 495.222 110.26 495.699 111.56C496.175 112.86 496.869 113.857 497.779 114.55C498.689 115.2 499.75 115.525 500.964 115.525ZM540.546 123.65C536.949 123.65 533.829 122.978 531.186 121.635C528.586 120.292 526.571 118.363 525.141 115.85C523.711 113.337 522.996 110.303 522.996 106.75C522.996 103.197 523.711 100.163 525.141 97.65C526.571 95.1367 528.564 93.2083 531.121 91.865C533.721 90.5217 536.689 89.85 540.026 89.85C543.449 89.85 546.352 90.5217 548.736 91.865C551.162 93.165 553.004 94.985 554.261 97.325C555.517 99.6217 556.146 102.265 556.146 105.255C556.146 106.035 556.124 106.815 556.081 107.595C556.037 108.375 555.972 109.025 555.886 109.545H530.146V103.63H551.011L545.746 105.645C545.746 103.045 545.269 101.052 544.316 99.665C543.406 98.2783 541.976 97.585 540.026 97.585C538.639 97.585 537.447 97.91 536.451 98.56C535.497 99.21 534.761 100.228 534.241 101.615C533.764 103.002 533.526 104.778 533.526 106.945C533.526 109.068 533.807 110.802 534.371 112.145C534.934 113.445 535.736 114.398 536.776 115.005C537.816 115.568 539.072 115.85 540.546 115.85C542.192 115.85 543.492 115.525 544.446 114.875C545.442 114.225 546.179 113.315 546.656 112.145L555.496 115.07C554.889 116.933 553.827 118.515 552.311 119.815C550.837 121.072 549.061 122.025 546.981 122.675C544.944 123.325 542.799 123.65 540.546 123.65ZM573.247 76.72V111.95C573.247 113.38 573.486 114.398 573.962 115.005C574.439 115.612 575.241 115.915 576.367 115.915C577.017 115.915 577.559 115.872 577.992 115.785C578.426 115.698 578.946 115.568 579.552 115.395L578.837 122.025C578.057 122.502 577.039 122.892 575.782 123.195C574.526 123.498 573.291 123.65 572.077 123.65C568.611 123.65 566.097 122.848 564.537 121.245C562.977 119.642 562.197 117.02 562.197 113.38V76.72H573.247ZM589.117 86.73C586.864 86.73 585.217 86.3183 584.177 85.495C583.18 84.6283 582.682 83.285 582.682 81.465C582.682 79.6017 583.18 78.2583 584.177 77.435C585.217 76.5683 586.864 76.135 589.117 76.135C591.327 76.135 592.952 76.5683 593.992 77.435C595.032 78.2583 595.552 79.6017 595.552 81.465C595.552 83.285 595.032 84.6283 593.992 85.495C592.952 86.3183 591.327 86.73 589.117 86.73ZM594.642 90.5V123H583.592V90.5H594.642ZM618.368 123.65C614.771 123.65 611.651 122.978 609.008 121.635C606.408 120.292 604.393 118.363 602.963 115.85C601.533 113.337 600.818 110.303 600.818 106.75C600.818 103.197 601.533 100.163 602.963 97.65C604.393 95.1367 606.386 93.2083 608.943 91.865C611.543 90.5217 614.511 89.85 617.848 89.85C621.271 89.85 624.175 90.5217 626.558 91.865C628.985 93.165 630.826 94.985 632.083 97.325C633.34 99.6217 633.968 102.265 633.968 105.255C633.968 106.035 633.946 106.815 633.903 107.595C633.86 108.375 633.795 109.025 633.708 109.545H607.968V103.63H628.833L623.568 105.645C623.568 103.045 623.091 101.052 622.138 99.665C621.228 98.2783 619.798 97.585 617.848 97.585C616.461 97.585 615.27 97.91 614.273 98.56C613.32 99.21 612.583 100.228 612.063 101.615C611.586 103.002 611.348 104.778 611.348 106.945C611.348 109.068 611.63 110.802 612.193 112.145C612.756 113.445 613.558 114.398 614.598 115.005C615.638 115.568 616.895 115.85 618.368 115.85C620.015 115.85 621.315 115.525 622.268 114.875C623.265 114.225 624.001 113.315 624.478 112.145L633.318 115.07C632.711 116.933 631.65 118.515 630.133 119.815C628.66 121.072 626.883 122.025 624.803 122.675C622.766 123.325 620.621 123.65 618.368 123.65ZM660.259 90.5H671.699L659.999 123H646.804L635.104 90.5H646.739L653.434 115.265L660.259 90.5ZM690.858 123.65C687.262 123.65 684.142 122.978 681.498 121.635C678.898 120.292 676.883 118.363 675.453 115.85C674.023 113.337 673.308 110.303 673.308 106.75C673.308 103.197 674.023 100.163 675.453 97.65C676.883 95.1367 678.877 93.2083 681.433 91.865C684.033 90.5217 687.002 89.85 690.338 89.85C693.762 89.85 696.665 90.5217 699.048 91.865C701.475 93.165 703.317 94.985 704.573 97.325C705.83 99.6217 706.458 102.265 706.458 105.255C706.458 106.035 706.437 106.815 706.393 107.595C706.35 108.375 706.285 109.025 706.198 109.545H680.458V103.63H701.323L696.058 105.645C696.058 103.045 695.582 101.052 694.628 99.665C693.718 98.2783 692.288 97.585 690.338 97.585C688.952 97.585 687.76 97.91 686.763 98.56C685.81 99.21 685.073 100.228 684.553 101.615C684.077 103.002 683.838 104.778 683.838 106.945C683.838 109.068 684.12 110.802 684.683 112.145C685.247 113.445 686.048 114.398 687.088 115.005C688.128 115.568 689.385 115.85 690.858 115.85C692.505 115.85 693.805 115.525 694.758 114.875C695.755 114.225 696.492 113.315 696.968 112.145L705.808 115.07C705.202 116.933 704.14 118.515 702.623 119.815C701.15 121.072 699.373 122.025 697.293 122.675C695.257 123.325 693.112 123.65 690.858 123.65Z" fill="white"/>
</svg>
