<svg width="214" height="197" viewBox="0 0 214 197" fill="none" xmlns="http://www.w3.org/2000/svg">
<path d="M29.4898 145.3C27.8298 145.3 26.3898 144.99 25.1698 144.37C23.9698 143.75 23.0398 142.86 22.3798 141.7C21.7198 140.54 21.3898 139.14 21.3898 137.5C21.3898 135.86 21.7198 134.46 22.3798 133.3C23.0398 132.14 23.9598 131.25 25.1398 130.63C26.3398 130.01 27.7098 129.7 29.2498 129.7C30.8298 129.7 32.1698 130.01 33.2698 130.63C34.3898 131.23 35.2398 132.07 35.8198 133.15C36.3998 134.21 36.6898 135.43 36.6898 136.81C36.6898 137.17 36.6798 137.53 36.6598 137.89C36.6398 138.25 36.6098 138.55 36.5698 138.79H24.6898V136.06H34.3198L31.8898 136.99C31.8898 135.79 31.6698 134.87 31.2298 134.23C30.8098 133.59 30.1498 133.27 29.2498 133.27C28.6098 133.27 28.0598 133.42 27.5998 133.72C27.1598 134.02 26.8198 134.49 26.5798 135.13C26.3598 135.77 26.2498 136.59 26.2498 137.59C26.2498 138.57 26.3798 139.37 26.6398 139.99C26.8998 140.59 27.2698 141.03 27.7498 141.31C28.2298 141.57 28.8098 141.7 29.4898 141.7C30.2498 141.7 30.8498 141.55 31.2898 141.25C31.7498 140.95 32.0898 140.53 32.3098 139.99L36.3898 141.34C36.1098 142.2 35.6198 142.93 34.9198 143.53C34.2398 144.11 33.4198 144.55 32.4598 144.85C31.5198 145.15 30.5298 145.3 29.4898 145.3ZM46.6529 129.7C48.1729 129.7 49.4329 129.92 50.4329 130.36C51.4529 130.78 52.2429 131.35 52.8029 132.07C53.3829 132.77 53.7429 133.53 53.8829 134.35L49.1729 135.91C49.0329 135.05 48.7729 134.41 48.3929 133.99C48.0329 133.55 47.5029 133.33 46.8029 133.33C46.1629 133.33 45.6229 133.48 45.1829 133.78C44.7629 134.06 44.4429 134.52 44.2229 135.16C44.0029 135.78 43.8929 136.58 43.8929 137.56C43.8929 138.54 44.0129 139.34 44.2529 139.96C44.4929 140.56 44.8329 141 45.2729 141.28C45.7129 141.54 46.2329 141.67 46.8329 141.67C47.3329 141.67 47.7429 141.58 48.0629 141.4C48.4029 141.2 48.6829 140.92 48.9029 140.56C49.1229 140.2 49.2629 139.76 49.3229 139.24L53.9129 140.71C53.7729 141.59 53.3929 142.38 52.7729 143.08C52.1729 143.76 51.3729 144.3 50.3729 144.7C49.3729 145.1 48.2029 145.3 46.8629 145.3C45.2229 145.3 43.7929 145 42.5729 144.4C41.3529 143.78 40.4129 142.89 39.7529 141.73C39.0929 140.55 38.7629 139.14 38.7629 137.5C38.7629 135.86 39.0929 134.46 39.7529 133.3C40.4129 132.12 41.3329 131.23 42.5129 130.63C43.7129 130.01 45.0929 129.7 46.6529 129.7ZM63.7044 129.7C65.2844 129.7 66.6644 130.01 67.8444 130.63C69.0444 131.23 69.9744 132.12 70.6344 133.3C71.3144 134.46 71.6544 135.86 71.6544 137.5C71.6544 139.14 71.3144 140.55 70.6344 141.73C69.9744 142.89 69.0444 143.78 67.8444 144.4C66.6644 145 65.2844 145.3 63.7044 145.3C62.1644 145.3 60.7944 145 59.5944 144.4C58.3944 143.78 57.4544 142.89 56.7744 141.73C56.1144 140.55 55.7844 139.14 55.7844 137.5C55.7844 135.86 56.1144 134.46 56.7744 133.3C57.4544 132.12 58.3944 131.23 59.5944 130.63C60.7944 130.01 62.1644 129.7 63.7044 129.7ZM63.7044 133.33C63.1244 133.33 62.6244 133.47 62.2044 133.75C61.7844 134.03 61.4644 134.48 61.2444 135.1C61.0244 135.72 60.9144 136.52 60.9144 137.5C60.9144 138.48 61.0244 139.28 61.2444 139.9C61.4644 140.5 61.7844 140.95 62.2044 141.25C62.6244 141.53 63.1244 141.67 63.7044 141.67C64.3044 141.67 64.8144 141.53 65.2344 141.25C65.6544 140.95 65.9744 140.5 66.1944 139.9C66.4144 139.28 66.5244 138.48 66.5244 137.5C66.5244 136.52 66.4144 135.72 66.1944 135.1C65.9744 134.48 65.6544 134.03 65.2344 133.75C64.8144 133.47 64.3044 133.33 63.7044 133.33ZM74.5234 145V130H79.0834L79.2334 132.91C79.7134 131.85 80.3834 131.05 81.2434 130.51C82.1234 129.97 83.1334 129.7 84.2734 129.7C85.3934 129.7 86.3634 129.95 87.1834 130.45C88.0034 130.95 88.6134 131.69 89.0134 132.67C89.3334 132.01 89.7434 131.46 90.2434 131.02C90.7634 130.58 91.3534 130.25 92.0134 130.03C92.6734 129.81 93.3534 129.7 94.0534 129.7C95.0534 129.7 95.9334 129.9 96.6934 130.3C97.4534 130.68 98.0534 131.27 98.4934 132.07C98.9534 132.85 99.1834 133.83 99.1834 135.01V145H94.0834V136.18C94.0834 135.22 93.8934 134.55 93.5134 134.17C93.1534 133.79 92.6634 133.6 92.0434 133.6C91.5434 133.6 91.0834 133.73 90.6634 133.99C90.2634 134.23 89.9534 134.6 89.7334 135.1C89.5134 135.6 89.4034 136.23 89.4034 136.99V145H84.3034V136.18C84.3034 135.22 84.1134 134.55 83.7334 134.17C83.3534 133.79 82.8634 133.6 82.2634 133.6C81.8034 133.6 81.3634 133.72 80.9434 133.96C80.5434 134.2 80.2234 134.58 79.9834 135.1C79.7434 135.6 79.6234 136.26 79.6234 137.08V145H74.5234ZM102.766 145V130H107.326L107.476 132.91C107.956 131.85 108.626 131.05 109.486 130.51C110.366 129.97 111.376 129.7 112.516 129.7C113.636 129.7 114.606 129.95 115.426 130.45C116.246 130.95 116.856 131.69 117.256 132.67C117.576 132.01 117.986 131.46 118.486 131.02C119.006 130.58 119.596 130.25 120.256 130.03C120.916 129.81 121.596 129.7 122.296 129.7C123.296 129.7 124.176 129.9 124.936 130.3C125.696 130.68 126.296 131.27 126.736 132.07C127.196 132.85 127.426 133.83 127.426 135.01V145H122.326V136.18C122.326 135.22 122.136 134.55 121.756 134.17C121.396 133.79 120.906 133.6 120.286 133.6C119.786 133.6 119.326 133.73 118.906 133.99C118.506 134.23 118.196 134.6 117.976 135.1C117.756 135.6 117.646 136.23 117.646 136.99V145H112.546V136.18C112.546 135.22 112.356 134.55 111.976 134.17C111.596 133.79 111.106 133.6 110.506 133.6C110.046 133.6 109.606 133.72 109.186 133.96C108.786 134.2 108.466 134.58 108.226 135.1C107.986 135.6 107.866 136.26 107.866 137.08V145H102.766ZM138.328 145.3C136.668 145.3 135.228 144.99 134.008 144.37C132.808 143.75 131.878 142.86 131.218 141.7C130.558 140.54 130.228 139.14 130.228 137.5C130.228 135.86 130.558 134.46 131.218 133.3C131.878 132.14 132.798 131.25 133.978 130.63C135.178 130.01 136.548 129.7 138.088 129.7C139.668 129.7 141.008 130.01 142.108 130.63C143.228 131.23 144.078 132.07 144.658 133.15C145.238 134.21 145.528 135.43 145.528 136.81C145.528 137.17 145.518 137.53 145.498 137.89C145.478 138.25 145.448 138.55 145.408 138.79H133.528V136.06H143.158L140.728 136.99C140.728 135.79 140.508 134.87 140.068 134.23C139.648 133.59 138.988 133.27 138.088 133.27C137.448 133.27 136.898 133.42 136.438 133.72C135.998 134.02 135.658 134.49 135.418 135.13C135.198 135.77 135.088 136.59 135.088 137.59C135.088 138.57 135.218 139.37 135.478 139.99C135.738 140.59 136.108 141.03 136.588 141.31C137.068 141.57 137.648 141.7 138.328 141.7C139.088 141.7 139.688 141.55 140.128 141.25C140.588 140.95 140.928 140.53 141.148 139.99L145.228 141.34C144.948 142.2 144.458 142.93 143.758 143.53C143.078 144.11 142.258 144.55 141.298 144.85C140.358 145.15 139.368 145.3 138.328 145.3ZM148.381 145V130H152.881L153.091 133.24C153.471 132.12 154.031 131.25 154.771 130.63C155.531 130.01 156.491 129.7 157.651 129.7C158.031 129.7 158.351 129.73 158.611 129.79C158.891 129.85 159.111 129.93 159.271 130.03L158.761 134.23C158.561 134.15 158.301 134.09 157.981 134.05C157.681 133.99 157.311 133.96 156.871 133.96C156.271 133.96 155.711 134.09 155.191 134.35C154.671 134.61 154.251 135 153.931 135.52C153.631 136.02 153.481 136.66 153.481 137.44V145H148.381ZM168.206 129.7C169.726 129.7 170.986 129.92 171.986 130.36C173.006 130.78 173.796 131.35 174.356 132.07C174.936 132.77 175.296 133.53 175.436 134.35L170.726 135.91C170.586 135.05 170.326 134.41 169.946 133.99C169.586 133.55 169.056 133.33 168.356 133.33C167.716 133.33 167.176 133.48 166.736 133.78C166.316 134.06 165.996 134.52 165.776 135.16C165.556 135.78 165.446 136.58 165.446 137.56C165.446 138.54 165.566 139.34 165.806 139.96C166.046 140.56 166.386 141 166.826 141.28C167.266 141.54 167.786 141.67 168.386 141.67C168.886 141.67 169.296 141.58 169.616 141.4C169.956 141.2 170.236 140.92 170.456 140.56C170.676 140.2 170.816 139.76 170.876 139.24L175.466 140.71C175.326 141.59 174.946 142.38 174.326 143.08C173.726 143.76 172.926 144.3 171.926 144.7C170.926 145.1 169.756 145.3 168.416 145.3C166.776 145.3 165.346 145 164.126 144.4C162.906 143.78 161.966 142.89 161.306 141.73C160.646 140.55 160.316 139.14 160.316 137.5C160.316 135.86 160.646 134.46 161.306 133.3C161.966 132.12 162.886 131.23 164.066 130.63C165.266 130.01 166.646 129.7 168.206 129.7ZM185.437 145.3C183.777 145.3 182.337 144.99 181.117 144.37C179.917 143.75 178.987 142.86 178.327 141.7C177.667 140.54 177.337 139.14 177.337 137.5C177.337 135.86 177.667 134.46 178.327 133.3C178.987 132.14 179.907 131.25 181.087 130.63C182.287 130.01 183.657 129.7 185.197 129.7C186.777 129.7 188.117 130.01 189.217 130.63C190.337 131.23 191.187 132.07 191.767 133.15C192.347 134.21 192.637 135.43 192.637 136.81C192.637 137.17 192.627 137.53 192.607 137.89C192.587 138.25 192.557 138.55 192.517 138.79H180.637V136.06H190.267L187.837 136.99C187.837 135.79 187.617 134.87 187.177 134.23C186.757 133.59 186.097 133.27 185.197 133.27C184.557 133.27 184.007 133.42 183.547 133.72C183.107 134.02 182.767 134.49 182.527 135.13C182.307 135.77 182.197 136.59 182.197 137.59C182.197 138.57 182.327 139.37 182.587 139.99C182.847 140.59 183.217 141.03 183.697 141.31C184.177 141.57 184.757 141.7 185.437 141.7C186.197 141.7 186.797 141.55 187.237 141.25C187.697 140.95 188.037 140.53 188.257 139.99L192.337 141.34C192.057 142.2 191.567 142.93 190.867 143.53C190.187 144.11 189.367 144.55 188.407 144.85C187.467 145.15 186.477 145.3 185.437 145.3Z" fill="#151414"/>
<path d="M5.21582 174.5V191H2.54082V174.5H5.21582ZM33.2025 178.5H36.1025L31.9025 191H28.9775L25.8275 181.725L22.8525 191H19.9275L15.7525 178.5H18.6275L21.4775 188.375L24.5775 178.5H27.2525L30.3525 188.375L33.2025 178.5ZM45.6701 182.975C45.6701 182.142 45.4368 181.5 44.9701 181.05C44.5201 180.583 43.8951 180.35 43.0951 180.35C42.3451 180.35 41.7035 180.525 41.1701 180.875C40.6368 181.225 40.2451 181.792 39.9951 182.575L37.7451 181.625C38.0618 180.608 38.6785 179.792 39.5951 179.175C40.5285 178.558 41.7285 178.25 43.1951 178.25C44.1951 178.25 45.0785 178.417 45.8451 178.75C46.6118 179.067 47.2118 179.55 47.6451 180.2C48.0951 180.85 48.3201 181.683 48.3201 182.7V188.275C48.3201 188.892 48.6285 189.2 49.2451 189.2C49.5451 189.2 49.8368 189.158 50.1201 189.075L49.9701 190.925C49.5868 191.108 49.1035 191.2 48.5201 191.2C47.9868 191.2 47.5035 191.108 47.0701 190.925C46.6535 190.725 46.3201 190.433 46.0701 190.05C45.8368 189.65 45.7201 189.158 45.7201 188.575V188.4L46.2701 188.375C46.1201 189.025 45.8118 189.567 45.3451 190C44.8785 190.417 44.3368 190.733 43.7201 190.95C43.1035 191.15 42.4785 191.25 41.8451 191.25C41.0618 191.25 40.3535 191.125 39.7201 190.875C39.1035 190.625 38.6118 190.25 38.2451 189.75C37.8951 189.233 37.7201 188.6 37.7201 187.85C37.7201 186.917 38.0201 186.15 38.6201 185.55C39.2368 184.95 40.1035 184.542 41.2201 184.325L46.0701 183.375L46.0451 185.25L42.5201 185.975C41.8201 186.108 41.2951 186.3 40.9451 186.55C40.5951 186.8 40.4201 187.167 40.4201 187.65C40.4201 188.117 40.5951 188.492 40.9451 188.775C41.3118 189.042 41.7951 189.175 42.3951 189.175C42.8118 189.175 43.2118 189.125 43.5951 189.025C43.9951 188.925 44.3535 188.767 44.6701 188.55C44.9868 188.317 45.2285 188.025 45.3951 187.675C45.5785 187.308 45.6701 186.875 45.6701 186.375V182.975ZM52.7029 191V178.5H55.0779L55.2529 181.75L54.9029 181.4C55.1363 180.683 55.4696 180.092 55.9029 179.625C56.3529 179.142 56.8779 178.792 57.4779 178.575C58.0946 178.358 58.7446 178.25 59.4279 178.25C60.3113 178.25 61.1029 178.425 61.8029 178.775C62.5196 179.108 63.0863 179.617 63.5029 180.3C63.9196 180.983 64.1279 181.85 64.1279 182.9V191H61.4529V183.725C61.4529 182.492 61.1946 181.642 60.6779 181.175C60.1779 180.692 59.5446 180.45 58.7779 180.45C58.2279 180.45 57.6946 180.583 57.1779 180.85C56.6613 181.1 56.2279 181.508 55.8779 182.075C55.5446 182.642 55.3779 183.4 55.3779 184.35V191H52.7029ZM71.685 174.825V187.25C71.685 187.867 71.8433 188.317 72.16 188.6C72.4933 188.883 72.935 189.025 73.485 189.025C73.935 189.025 74.3266 188.958 74.66 188.825C74.9933 188.675 75.3016 188.475 75.585 188.225L76.185 190.175C75.8016 190.508 75.3266 190.775 74.76 190.975C74.21 191.158 73.5933 191.25 72.91 191.25C72.1933 191.25 71.535 191.133 70.935 190.9C70.335 190.667 69.8683 190.292 69.535 189.775C69.2016 189.242 69.0266 188.55 69.01 187.7V175.575L71.685 174.825ZM75.985 178.5V180.6H66.61V178.5H75.985ZM90.0199 174.825V187.25C90.0199 187.867 90.1783 188.317 90.4949 188.6C90.8283 188.883 91.2699 189.025 91.8199 189.025C92.2699 189.025 92.6616 188.958 92.9949 188.825C93.3283 188.675 93.6366 188.475 93.9199 188.225L94.5199 190.175C94.1366 190.508 93.6616 190.775 93.0949 190.975C92.5449 191.158 91.9283 191.25 91.2449 191.25C90.5283 191.25 89.8699 191.133 89.2699 190.9C88.6699 190.667 88.2033 190.292 87.8699 189.775C87.5366 189.242 87.3616 188.55 87.3449 187.7V175.575L90.0199 174.825ZM94.3199 178.5V180.6H84.9449V178.5H94.3199ZM102.391 178.25C103.607 178.25 104.682 178.508 105.616 179.025C106.549 179.542 107.274 180.292 107.791 181.275C108.324 182.242 108.591 183.4 108.591 184.75C108.591 186.1 108.324 187.267 107.791 188.25C107.274 189.217 106.549 189.958 105.616 190.475C104.682 190.992 103.607 191.25 102.391 191.25C101.174 191.25 100.099 190.992 99.1656 190.475C98.2323 189.958 97.499 189.217 96.9656 188.25C96.4323 187.267 96.1656 186.1 96.1656 184.75C96.1656 183.4 96.4323 182.242 96.9656 181.275C97.499 180.292 98.2323 179.542 99.1656 179.025C100.099 178.508 101.174 178.25 102.391 178.25ZM102.391 180.35C101.641 180.35 100.999 180.525 100.466 180.875C99.949 181.208 99.549 181.7 99.2656 182.35C98.9823 183 98.8406 183.8 98.8406 184.75C98.8406 185.683 98.9823 186.483 99.2656 187.15C99.549 187.8 99.949 188.3 100.466 188.65C100.999 188.983 101.641 189.15 102.391 189.15C103.141 189.15 103.774 188.983 104.291 188.65C104.807 188.3 105.207 187.8 105.491 187.15C105.774 186.483 105.916 185.683 105.916 184.75C105.916 183.8 105.774 183 105.491 182.35C105.207 181.7 104.807 181.208 104.291 180.875C103.774 180.525 103.141 180.35 102.391 180.35ZM124.886 191.25C123.852 191.25 122.911 190.992 122.061 190.475C121.227 189.958 120.569 189.217 120.086 188.25C119.602 187.283 119.361 186.125 119.361 184.775C119.361 183.375 119.619 182.192 120.136 181.225C120.652 180.258 121.344 179.525 122.211 179.025C123.077 178.508 124.027 178.25 125.061 178.25C126.127 178.25 127.027 178.542 127.761 179.125C128.494 179.708 128.986 180.467 129.236 181.4L128.936 181.675V172.875H131.611V191H129.236L129.036 187.6L129.386 187.625C129.269 188.375 128.994 189.025 128.561 189.575C128.127 190.108 127.586 190.525 126.936 190.825C126.302 191.108 125.619 191.25 124.886 191.25ZM125.461 189.1C126.177 189.1 126.794 188.917 127.311 188.55C127.827 188.183 128.227 187.667 128.511 187C128.794 186.333 128.936 185.533 128.936 184.6C128.936 183.733 128.794 182.992 128.511 182.375C128.227 181.742 127.827 181.258 127.311 180.925C126.811 180.592 126.227 180.425 125.561 180.425C124.444 180.425 123.577 180.808 122.961 181.575C122.344 182.342 122.036 183.4 122.036 184.75C122.036 186.1 122.336 187.167 122.936 187.95C123.536 188.717 124.377 189.1 125.461 189.1ZM141.26 191.25C140.01 191.25 138.91 190.992 137.96 190.475C137.01 189.958 136.268 189.217 135.735 188.25C135.218 187.267 134.96 186.1 134.96 184.75C134.96 183.4 135.218 182.242 135.735 181.275C136.268 180.292 137.001 179.542 137.935 179.025C138.868 178.508 139.926 178.25 141.11 178.25C142.326 178.25 143.36 178.5 144.21 179C145.06 179.5 145.71 180.183 146.16 181.05C146.61 181.917 146.835 182.9 146.835 184C146.835 184.3 146.826 184.583 146.81 184.85C146.793 185.117 146.768 185.35 146.735 185.55H136.685V183.5H145.56L144.235 183.9C144.235 182.767 143.951 181.9 143.385 181.3C142.818 180.683 142.043 180.375 141.06 180.375C140.343 180.375 139.718 180.542 139.185 180.875C138.651 181.208 138.243 181.708 137.96 182.375C137.676 183.025 137.535 183.825 137.535 184.775C137.535 185.708 137.685 186.5 137.985 187.15C138.285 187.8 138.71 188.292 139.26 188.625C139.81 188.958 140.46 189.125 141.21 189.125C142.043 189.125 142.718 188.967 143.235 188.65C143.751 188.333 144.16 187.892 144.46 187.325L146.585 188.325C146.285 188.925 145.876 189.45 145.36 189.9C144.86 190.333 144.26 190.667 143.56 190.9C142.86 191.133 142.093 191.25 141.26 191.25ZM158.071 178.5H160.871L155.896 191H152.971L147.971 178.5H150.896L154.446 188.675L158.071 178.5ZM168.579 191.25C167.329 191.25 166.229 190.992 165.279 190.475C164.329 189.958 163.587 189.217 163.054 188.25C162.537 187.267 162.279 186.1 162.279 184.75C162.279 183.4 162.537 182.242 163.054 181.275C163.587 180.292 164.321 179.542 165.254 179.025C166.187 178.508 167.246 178.25 168.429 178.25C169.646 178.25 170.679 178.5 171.529 179C172.379 179.5 173.029 180.183 173.479 181.05C173.929 181.917 174.154 182.9 174.154 184C174.154 184.3 174.146 184.583 174.129 184.85C174.112 185.117 174.087 185.35 174.054 185.55H164.004V183.5H172.879L171.554 183.9C171.554 182.767 171.271 181.9 170.704 181.3C170.137 180.683 169.362 180.375 168.379 180.375C167.662 180.375 167.037 180.542 166.504 180.875C165.971 181.208 165.562 181.708 165.279 182.375C164.996 183.025 164.854 183.825 164.854 184.775C164.854 185.708 165.004 186.5 165.304 187.15C165.604 187.8 166.029 188.292 166.579 188.625C167.129 188.958 167.779 189.125 168.529 189.125C169.362 189.125 170.037 188.967 170.554 188.65C171.071 188.333 171.479 187.892 171.779 187.325L173.904 188.325C173.604 188.925 173.196 189.45 172.679 189.9C172.179 190.333 171.579 190.667 170.879 190.9C170.179 191.133 169.412 191.25 168.579 191.25ZM180.132 172.875V187.5C180.132 188.117 180.24 188.542 180.457 188.775C180.674 189.008 181.032 189.125 181.532 189.125C181.832 189.125 182.082 189.108 182.282 189.075C182.499 189.025 182.765 188.942 183.082 188.825L182.782 190.825C182.499 190.958 182.174 191.058 181.807 191.125C181.44 191.208 181.074 191.25 180.707 191.25C179.59 191.25 178.765 190.967 178.232 190.4C177.715 189.817 177.457 188.925 177.457 187.725V172.875H180.132ZM190.745 178.25C191.962 178.25 193.037 178.508 193.97 179.025C194.903 179.542 195.628 180.292 196.145 181.275C196.678 182.242 196.945 183.4 196.945 184.75C196.945 186.1 196.678 187.267 196.145 188.25C195.628 189.217 194.903 189.958 193.97 190.475C193.037 190.992 191.962 191.25 190.745 191.25C189.528 191.25 188.453 190.992 187.52 190.475C186.587 189.958 185.853 189.217 185.32 188.25C184.787 187.267 184.52 186.1 184.52 184.75C184.52 183.4 184.787 182.242 185.32 181.275C185.853 180.292 186.587 179.542 187.52 179.025C188.453 178.508 189.528 178.25 190.745 178.25ZM190.745 180.35C189.995 180.35 189.353 180.525 188.82 180.875C188.303 181.208 187.903 181.7 187.62 182.35C187.337 183 187.195 183.8 187.195 184.75C187.195 185.683 187.337 186.483 187.62 187.15C187.903 187.8 188.303 188.3 188.82 188.65C189.353 188.983 189.995 189.15 190.745 189.15C191.495 189.15 192.128 188.983 192.645 188.65C193.162 188.3 193.562 187.8 193.845 187.15C194.128 186.483 194.27 185.683 194.27 184.75C194.27 183.8 194.128 183 193.845 182.35C193.562 181.7 193.162 181.208 192.645 180.875C192.128 180.525 191.495 180.35 190.745 180.35ZM200.31 196.25V178.5H202.685L202.885 182L202.535 181.575C202.735 180.925 203.044 180.35 203.46 179.85C203.877 179.35 204.394 178.958 205.01 178.675C205.644 178.392 206.335 178.25 207.085 178.25C208.102 178.25 209.027 178.508 209.86 179.025C210.694 179.542 211.352 180.283 211.835 181.25C212.319 182.2 212.56 183.358 212.56 184.725C212.56 186.092 212.31 187.267 211.81 188.25C211.327 189.217 210.66 189.958 209.81 190.475C208.977 190.992 208.044 191.25 207.01 191.25C205.944 191.25 205.035 190.975 204.285 190.425C203.535 189.858 203.002 189.142 202.685 188.275L202.985 187.85V196.25H200.31ZM206.435 189.075C207.519 189.075 208.36 188.692 208.96 187.925C209.577 187.158 209.885 186.1 209.885 184.75C209.885 183.4 209.585 182.342 208.985 181.575C208.385 180.792 207.552 180.4 206.485 180.4C205.785 180.4 205.169 180.583 204.635 180.95C204.119 181.3 203.71 181.8 203.41 182.45C203.127 183.083 202.985 183.85 202.985 184.75C202.985 185.633 203.127 186.4 203.41 187.05C203.694 187.7 204.094 188.2 204.61 188.55C205.127 188.9 205.735 189.075 206.435 189.075Z" fill="#737272"/>
<g clip-path="url(#clip0_48_214)">
<path d="M142.883 0V30.3204H126.543L110.203 13.9801V0H142.883Z" fill="#FF6536"/>
<path d="M142.883 0V30.3204H126.543L115.649 19.4268V0H142.883Z" fill="#F03800"/>
<path d="M93.8623 11.2567H126.543V30.3204H93.8623V11.2567Z" fill="#FDBF00"/>
<path d="M115.649 11.2567H126.543V30.3204H115.649V11.2567Z" fill="#FF9100"/>
<path d="M153.958 71.1713V76.618H83.241L77.7942 22.1503H61V16.7035H82.6963L83.7857 27.597H153.958L147.894 65.7245H87.5984L88.1431 71.1713H153.958Z" fill="#7ED8F6"/>
<path d="M88.4155 84.7882C88.4155 89.2931 92.0808 92.9584 96.5857 92.9584C101.091 92.9584 104.756 89.2931 104.756 84.7882C104.756 80.2833 101.091 76.618 96.5857 76.618C92.0808 76.618 88.4155 80.2833 88.4155 84.7882Z" fill="#7ED8F6"/>
<path d="M142.883 84.7882C142.883 89.3088 139.234 92.9584 134.713 92.9584C130.192 92.9584 126.543 89.3088 126.543 84.7882C126.543 80.267 130.192 76.618 134.713 76.618C139.234 76.618 142.883 80.267 142.883 84.7882Z" fill="#6AA9FF"/>
<path d="M115.649 71.1713H153.958V76.618H115.649V71.1713Z" fill="#6AA9FF"/>
<path d="M147.894 65.7245H115.649V27.597H153.958L147.894 65.7245Z" fill="#6AA9FF"/>
</g>
<defs>
<clipPath id="clip0_48_214">
<rect width="92.9583" height="92.9583" fill="white" transform="translate(61)"/>
</clipPath>
</defs>
</svg>
